<?xml version="1.0" encoding="UTF-8" standalone="no"?>
<!DOCTYPE svg PUBLIC "-//W3C//DTD SVG 1.1//EN"
 "http://www.w3.org/Graphics/SVG/1.1/DTD/svg11.dtd">
<!-- Generated by graphviz version 2.38.0 (20140413.2041)
 -->
<!-- Title: G Pages: 1 -->
<svg width="660pt" height="944pt"
 viewBox="0.00 0.00 659.55 944.48" xmlns="http://www.w3.org/2000/svg" xmlns:xlink="http://www.w3.org/1999/xlink">
<g id="graph0" class="graph" transform="scale(1 1) rotate(0) translate(4 940.479)">
<title>G</title>
<polygon fill="white" stroke="none" points="-4,4 -4,-940.479 655.546,-940.479 655.546,4 -4,4"/>
<!-- n1 -->
<g id="node1" class="node"><title>n1</title>
<g id="a_node1"><a xlink:title="[graph_z.lua]:14_">
<ellipse fill="none" stroke="black" cx="210.045" cy="-159.037" rx="124.402" ry="48.1667"/>
<text text-anchor="middle" x="210.045" y="-177.837" font-family="Times,serif" font-size="14.00">Node1</text>
<text text-anchor="start" x="130.045" y="-162.837" font-family="Times,serif" font-size="14.00">module = nn.CAddTable</text>
<text text-anchor="start" x="130.045" y="-147.837" font-family="Times,serif" font-size="14.00">reverseMap = {}</text>
<text text-anchor="middle" x="210.045" y="-132.837" font-family="Times,serif" font-size="14.00">mapindex = {Node3,Node4}</text>
</a>
</g>
</g>
<!-- n2 -->
<g id="node2" class="node"><title>n2</title>
<g id="a_node2"><a xlink:title="[[C]]:&#45;1_">
<ellipse fill="none" stroke="black" cx="210.045" cy="-37.4767" rx="77.5641" ry="37.4533"/>
<text text-anchor="middle" x="210.045" y="-48.7767" font-family="Times,serif" font-size="14.00">Node2</text>
<text text-anchor="start" x="163.045" y="-33.7767" font-family="Times,serif" font-size="14.00">input = {}</text>
<text text-anchor="middle" x="210.045" y="-18.7767" font-family="Times,serif" font-size="14.00">reverseMap = {}</text>
</a>
</g>
</g>
<!-- n1&#45;&gt;n2 -->
<g id="edge1" class="edge"><title>n1&#45;&gt;n2</title>
<path fill="none" stroke="black" d="M210.045,-110.783C210.045,-102.338 210.045,-93.543 210.045,-85.1149"/>
<polygon fill="black" stroke="black" points="213.545,-85.0643 210.045,-75.0644 206.545,-85.0644 213.545,-85.0643"/>
</g>
<!-- n3 -->
<g id="node3" class="node"><title>n3</title>
<g id="a_node3"><a xlink:title="[graph_z.lua]:8_">
<ellipse fill="none" stroke="black" cx="94.0452" cy="-412.763" rx="94.0904" ry="37.4533"/>
<text text-anchor="middle" x="94.0452" y="-424.063" font-family="Times,serif" font-size="14.00">Node3</text>
<text text-anchor="start" x="35.5452" y="-409.063" font-family="Times,serif" font-size="14.00">module = nn.Identity</text>
<text text-anchor="middle" x="94.0452" y="-394.063" font-family="Times,serif" font-size="14.00">reverseMap = {}</text>
</a>
</g>
</g>
<!-- n3&#45;&gt;n1 -->
<g id="edge2" class="edge"><title>n3&#45;&gt;n1</title>
<path fill="none" stroke="black" d="M108.856,-375.581C123.125,-341.21 145.641,-288.228 167.045,-243.12 171.327,-234.096 176.034,-224.612 180.713,-215.411"/>
<polygon fill="black" stroke="black" points="183.92,-216.828 185.367,-206.332 177.691,-213.635 183.92,-216.828"/>
</g>
<!-- n4 -->
<g id="node4" class="node"><title>n4</title>
<g id="a_node4"><a xlink:title="[graph_z.lua]:13_">
<ellipse fill="none" stroke="black" cx="300.045" cy="-291.203" rx="124.402" ry="48.1667"/>
<text text-anchor="middle" x="300.045" y="-310.003" font-family="Times,serif" font-size="14.00">Node4</text>
<text text-anchor="start" x="220.045" y="-295.003" font-family="Times,serif" font-size="14.00">module = nn.CMul</text>
<text text-anchor="start" x="220.045" y="-280.003" font-family="Times,serif" font-size="14.00">reverseMap = {}</text>
<text text-anchor="middle" x="300.045" y="-265.003" font-family="Times,serif" font-size="14.00">mapindex = {Node6,Node7}</text>
</a>
</g>
</g>
<!-- n4&#45;&gt;n1 -->
<g id="edge3" class="edge"><title>n4&#45;&gt;n1</title>
<path fill="none" stroke="black" d="M268.568,-244.677C261.756,-234.826 254.489,-224.315 247.474,-214.17"/>
<polygon fill="black" stroke="black" points="250.223,-211.992 241.657,-205.757 244.466,-215.973 250.223,-211.992"/>
</g>
<!-- n5 -->
<g id="node5" class="node"><title>n5</title>
<g id="a_node5"><a xlink:title="[[C]]:&#45;1_&#45;1">
<ellipse fill="none" stroke="black" cx="119.045" cy="-534.323" rx="77.5641" ry="48.1667"/>
<text text-anchor="middle" x="119.045" y="-553.123" font-family="Times,serif" font-size="14.00">Node5</text>
<text text-anchor="start" x="72.0452" y="-538.123" font-family="Times,serif" font-size="14.00">input = {}</text>
<text text-anchor="start" x="72.0452" y="-523.123" font-family="Times,serif" font-size="14.00">selectindex = 1</text>
<text text-anchor="middle" x="119.045" y="-508.123" font-family="Times,serif" font-size="14.00">reverseMap = {}</text>
</a>
</g>
</g>
<!-- n5&#45;&gt;n3 -->
<g id="edge4" class="edge"><title>n5&#45;&gt;n3</title>
<path fill="none" stroke="black" d="M109.236,-486.413C107.427,-477.761 105.539,-468.732 103.734,-460.097"/>
<polygon fill="black" stroke="black" points="107.134,-459.26 101.662,-450.188 100.283,-460.693 107.134,-459.26"/>
</g>
<!-- n6 -->
<g id="node6" class="node"><title>n6</title>
<g id="a_node6"><a xlink:title="[graph_z.lua]:9_">
<ellipse fill="none" stroke="black" cx="300.045" cy="-412.763" rx="94.0904" ry="37.4533"/>
<text text-anchor="middle" x="300.045" y="-424.063" font-family="Times,serif" font-size="14.00">Node6</text>
<text text-anchor="start" x="241.545" y="-409.063" font-family="Times,serif" font-size="14.00">module = nn.Identity</text>
<text text-anchor="middle" x="300.045" y="-394.063" font-family="Times,serif" font-size="14.00">reverseMap = {}</text>
</a>
</g>
</g>
<!-- n6&#45;&gt;n4 -->
<g id="edge5" class="edge"><title>n6&#45;&gt;n4</title>
<path fill="none" stroke="black" d="M300.045,-375.241C300.045,-367.147 300.045,-358.378 300.045,-349.674"/>
<polygon fill="black" stroke="black" points="303.545,-349.531 300.045,-339.531 296.545,-349.531 303.545,-349.531"/>
</g>
<!-- n7 -->
<g id="node7" class="node"><title>n7</title>
<g id="a_node7"><a xlink:title="[graph_z.lua]:12_">
<ellipse fill="none" stroke="black" cx="532.045" cy="-412.763" rx="119.502" ry="37.4533"/>
<text text-anchor="middle" x="532.045" y="-424.063" font-family="Times,serif" font-size="14.00">Node7</text>
<text text-anchor="start" x="455.545" y="-409.063" font-family="Times,serif" font-size="14.00">module = nn.Linear(3 &#45;&gt; 3)</text>
<text text-anchor="middle" x="532.045" y="-394.063" font-family="Times,serif" font-size="14.00">reverseMap = {}</text>
</a>
</g>
</g>
<!-- n7&#45;&gt;n4 -->
<g id="edge6" class="edge"><title>n7&#45;&gt;n4</title>
<path fill="none" stroke="black" d="M471.09,-380.35C444.08,-366.431 411.887,-349.84 382.754,-334.827"/>
<polygon fill="black" stroke="black" points="384.312,-331.692 373.82,-330.223 381.106,-337.915 384.312,-331.692"/>
</g>
<!-- n8 -->
<g id="node8" class="node"><title>n8</title>
<g id="a_node8"><a xlink:title="[[C]]:&#45;1_ split at [...haithien/torch/install/share/lua/5.1/nngraph/gmodule.lua]:96&#45;mnode">
<ellipse fill="none" stroke="black" cx="300.045" cy="-788.049" rx="80.7205" ry="37.4533"/>
<text text-anchor="middle" x="300.045" y="-799.349" font-family="Times,serif" font-size="14.00">Node8</text>
<text text-anchor="start" x="251.045" y="-784.349" font-family="Times,serif" font-size="14.00">reverseMap = {}</text>
<text text-anchor="middle" x="300.045" y="-769.349" font-family="Times,serif" font-size="14.00">nSplitOutputs = 3</text>
</a>
</g>
</g>
<!-- n8&#45;&gt;n5 -->
<g id="edge7" class="edge"><title>n8&#45;&gt;n5</title>
<path fill="none" stroke="black" d="M256.263,-756.144C241.378,-744.268 225.4,-729.864 213.045,-714.573 182.608,-676.904 157.699,-627.841 141.188,-590.571"/>
<polygon fill="black" stroke="black" points="144.378,-589.131 137.173,-581.363 137.962,-591.929 144.378,-589.131"/>
</g>
<!-- n9 -->
<g id="node9" class="node"><title>n9</title>
<g id="a_node9"><a xlink:title="[[C]]:&#45;1_&#45;2">
<ellipse fill="none" stroke="black" cx="300.045" cy="-666.489" rx="77.5641" ry="48.1667"/>
<text text-anchor="middle" x="300.045" y="-685.289" font-family="Times,serif" font-size="14.00">Node9</text>
<text text-anchor="start" x="253.045" y="-670.289" font-family="Times,serif" font-size="14.00">input = {}</text>
<text text-anchor="start" x="253.045" y="-655.289" font-family="Times,serif" font-size="14.00">selectindex = 2</text>
<text text-anchor="middle" x="300.045" y="-640.289" font-family="Times,serif" font-size="14.00">reverseMap = {}</text>
</a>
</g>
</g>
<!-- n8&#45;&gt;n9 -->
<g id="edge11" class="edge"><title>n8&#45;&gt;n9</title>
<path fill="none" stroke="black" d="M300.045,-750.528C300.045,-742.433 300.045,-733.664 300.045,-724.961"/>
<polygon fill="black" stroke="black" points="303.545,-724.818 300.045,-714.818 296.545,-724.818 303.545,-724.818"/>
</g>
<!-- n12 -->
<g id="node12" class="node"><title>n12</title>
<g id="a_node12"><a xlink:title="[[C]]:&#45;1_&#45;3">
<ellipse fill="none" stroke="black" cx="503.045" cy="-666.489" rx="77.5641" ry="48.1667"/>
<text text-anchor="middle" x="503.045" y="-685.289" font-family="Times,serif" font-size="14.00">Node12</text>
<text text-anchor="start" x="456.045" y="-670.289" font-family="Times,serif" font-size="14.00">input = {}</text>
<text text-anchor="start" x="456.045" y="-655.289" font-family="Times,serif" font-size="14.00">selectindex = 3</text>
<text text-anchor="middle" x="503.045" y="-640.289" font-family="Times,serif" font-size="14.00">reverseMap = {}</text>
</a>
</g>
</g>
<!-- n8&#45;&gt;n12 -->
<g id="edge13" class="edge"><title>n8&#45;&gt;n12</title>
<path fill="none" stroke="black" d="M349.186,-758.107C375.984,-742.324 409.487,-722.592 438.382,-705.574"/>
<polygon fill="black" stroke="black" points="440.348,-708.478 447.188,-700.387 436.796,-702.446 440.348,-708.478"/>
</g>
<!-- n9&#45;&gt;n6 -->
<g id="edge8" class="edge"><title>n9&#45;&gt;n6</title>
<path fill="none" stroke="black" d="M300.045,-618.142C300.045,-572.954 300.045,-505.285 300.045,-460.351"/>
<polygon fill="black" stroke="black" points="303.545,-460.286 300.045,-450.286 296.545,-460.286 303.545,-460.286"/>
</g>
<!-- n10 -->
<g id="node10" class="node"><title>n10</title>
<g id="a_node10"><a xlink:title="[graph_z.lua]:10_">
<ellipse fill="none" stroke="black" cx="517.045" cy="-534.323" rx="94.0904" ry="37.4533"/>
<text text-anchor="middle" x="517.045" y="-545.623" font-family="Times,serif" font-size="14.00">Node10</text>
<text text-anchor="start" x="458.545" y="-530.623" font-family="Times,serif" font-size="14.00">module = nn.Identity</text>
<text text-anchor="middle" x="517.045" y="-515.623" font-family="Times,serif" font-size="14.00">reverseMap = {}</text>
</a>
</g>
</g>
<!-- n10&#45;&gt;n7 -->
<g id="edge9" class="edge"><title>n10&#45;&gt;n7</title>
<path fill="none" stroke="black" d="M521.627,-496.801C523.068,-485.32 524.678,-472.483 526.194,-460.399"/>
<polygon fill="black" stroke="black" points="529.667,-460.831 527.44,-450.473 522.722,-459.959 529.667,-460.831"/>
</g>
<!-- n11 -->
<g id="node11" class="node"><title>n11</title>
<g id="a_node11"><a xlink:title="[[C]]:&#45;1_">
<ellipse fill="none" stroke="black" cx="300.045" cy="-899.003" rx="77.5641" ry="37.4533"/>
<text text-anchor="middle" x="300.045" y="-910.303" font-family="Times,serif" font-size="14.00">Node11</text>
<text text-anchor="start" x="253.045" y="-895.303" font-family="Times,serif" font-size="14.00">input = {}</text>
<text text-anchor="middle" x="300.045" y="-880.303" font-family="Times,serif" font-size="14.00">reverseMap = {}</text>
</a>
</g>
</g>
<!-- n11&#45;&gt;n8 -->
<g id="edge10" class="edge"><title>n11&#45;&gt;n8</title>
<path fill="none" stroke="black" d="M300.045,-861.42C300.045,-853.245 300.045,-844.465 300.045,-835.939"/>
<polygon fill="black" stroke="black" points="303.545,-835.721 300.045,-825.721 296.545,-835.721 303.545,-835.721"/>
</g>
<!-- n12&#45;&gt;n10 -->
<g id="edge12" class="edge"><title>n12&#45;&gt;n10</title>
<path fill="none" stroke="black" d="M508.1,-618.496C509.372,-606.669 510.737,-593.975 512.008,-582.155"/>
<polygon fill="black" stroke="black" points="515.507,-582.353 513.097,-572.036 508.547,-581.605 515.507,-582.353"/>
</g>
</g>
</svg>
